<?xml version="1.0" standalone="no"?>
<!DOCTYPE svg PUBLIC "-//W3C//DTD SVG 20010904//EN"
 "http://www.w3.org/TR/2001/REC-SVG-20010904/DTD/svg10.dtd">
<svg version="1.0" xmlns="http://www.w3.org/2000/svg"
 width="738.000000pt" height="738.000000pt" viewBox="0 0 738.000000 738.000000"
 preserveAspectRatio="xMidYMid meet">
<metadata>
Created by potrace 1.11, written by Peter Selinger 2001-2013
</metadata>
<g transform="translate(0.000000,738.000000) scale(0.100000,-0.100000)"
fill="#000000" stroke="none">
<path d="M1700 6935 c0 -85 3 -115 13 -116 6 0 51 -1 100 -1 58 0 87 -4 88
-11 3 -58 0 -710 -4 -714 -3 -3 -49 -5 -101 -5 l-96 1 0 -115 0 -114 340 0
c317 0 340 1 341 18 1 9 1 51 1 92 0 132 9 119 -79 119 -43 0 -90 0 -105 0
l-28 1 0 364 0 363 88 1 c48 0 96 0 107 1 20 1 22 28 16 208 l-1 21 -340 1
-340 1 0 -115z"/>
<path d="M2480 6455 l0 -125 1425 0 1424 0 39 -67 c68 -119 218 -386 257 -458
21 -38 41 -74 45 -80 7 -10 32 -54 93 -165 17 -30 80 -143 140 -250 61 -107
121 -215 135 -240 13 -25 32 -58 42 -75 10 -16 29 -50 42 -75 48 -87 271 -485
282 -502 9 -16 28 -18 149 -18 l139 0 -27 48 c-15 26 -37 65 -49 87 -55 100
-331 585 -357 628 -16 27 -29 50 -29 52 0 3 -18 34 -40 70 -22 36 -40 67 -40
69 0 2 -43 79 -96 172 -53 93 -109 192 -124 219 -15 28 -45 79 -65 115 -21 36
-43 74 -49 85 -125 229 -328 576 -352 602 l-31 33 -1477 0 -1476 0 0 -125z"/>
<path d="M1494 5383 c-103 -181 -196 -343 -205 -361 -10 -18 -22 -38 -27 -45
-5 -7 -24 -39 -42 -72 -17 -33 -35 -64 -40 -70 -4 -5 -18 -30 -32 -55 -47 -85
-181 -315 -190 -327 -13 -16 -3 -43 16 -43 8 0 54 -20 102 -45 48 -25 88 -44
89 -42 2 1 22 37 46 80 24 43 49 86 54 95 6 9 31 53 56 97 152 266 563 982
569 990 4 6 21 36 39 68 l32 57 -139 0 -140 0 -188 -327z"/>
<path d="M687 4344 c-1 -1 -28 -4 -60 -8 -70 -7 -179 -43 -244 -81 -78 -45
-184 -161 -227 -248 -49 -101 -65 -178 -61 -307 4 -172 56 -293 175 -411 108
-106 253 -167 415 -173 183 -7 337 52 468 180 l47 47 -86 87 -86 88 -46 -44
c-140 -134 -360 -145 -494 -25 -92 83 -131 189 -117 321 9 84 35 144 85 199
139 154 386 157 539 6 l45 -44 57 66 c32 36 68 76 81 89 12 13 22 27 22 33 0
20 -127 123 -192 156 -72 35 -178 63 -266 68 -29 2 -54 2 -55 1z"/>
<path d="M6427 4282 c-2 -4 -3 -270 -3 -592 l1 -585 438 -3 437 -2 0 119 0
119 -272 0 c-150 0 -287 1 -305 1 l-32 1 1 120 0 120 266 2 265 3 0 110 0 110
-224 2 c-123 1 -243 2 -265 3 l-41 0 -1 120 0 120 294 0 c228 0 294 3 295 13
1 15 1 187 0 209 -1 15 -37 16 -426 17 -233 0 -426 -3 -428 -7z"/>
<path d="M1024 3090 c-50 -26 -97 -49 -104 -52 -11 -3 -9 -11 8 -35 12 -17 22
-34 22 -37 0 -3 27 -51 60 -107 33 -55 60 -103 60 -105 0 -2 12 -23 26 -46 14
-23 36 -60 48 -82 13 -23 150 -261 306 -531 155 -269 296 -515 313 -545 16
-30 33 -59 37 -65 4 -5 17 -27 29 -48 12 -21 83 -144 158 -275 75 -130 144
-249 152 -264 35 -61 -37 -58 1308 -58 l1228 0 -5 63 c-3 34 -3 88 0 120 3 32
3 60 1 63 -2 2 -534 4 -1181 4 l-1176 0 -45 77 c-24 43 -48 85 -54 95 -5 9
-19 34 -31 55 -26 47 -337 584 -409 708 -29 50 -137 236 -240 415 -103 179
-222 384 -263 455 -42 72 -89 154 -106 184 -17 30 -35 55 -41 56 -5 1 -51 -19
-101 -45z"/>
<path d="M6230 2638 c-100 -178 -191 -335 -201 -350 -10 -15 -19 -29 -19 -32
0 -3 -22 -43 -49 -88 -26 -46 -59 -103 -73 -128 -14 -25 -34 -61 -45 -80 -122
-214 -183 -323 -183 -326 0 -2 6 -4 13 -4 7 0 56 -22 108 -48 93 -47 96 -47
105 -27 10 18 292 511 542 945 52 91 104 181 115 200 10 19 46 82 80 140 33
58 62 108 64 113 2 4 -59 7 -135 7 l-140 0 -182 -322z"/>
<path d="M5428 1565 c-2 -2 -26 -5 -53 -6 -261 -10 -493 -199 -560 -455 -15
-59 -21 -207 -11 -276 30 -196 182 -379 379 -453 81 -30 114 -36 228 -39 158
-6 306 51 429 163 l65 59 -37 39 c-20 21 -56 59 -81 86 -24 26 -48 47 -52 47
-4 0 -27 -18 -50 -39 -172 -159 -433 -137 -554 46 -39 59 -53 109 -56 198 -5
160 61 269 201 336 49 24 77 30 135 31 127 3 200 -24 285 -104 46 -44 51 -46
65 -30 8 9 45 52 82 94 58 66 66 80 55 93 -21 25 -130 109 -170 133 -49 27
-157 61 -222 68 -28 3 -56 7 -63 9 -6 2 -13 2 -15 0z"/>
</g>
</svg>
